HIERARCHY
ROOT Hips
{
	OFFSET 0.000000 97.167313 0.000000
	CHANNELS 6 Xposition Yposition Zposition Xrotation Yrotation Zrotation
	JOINT Spine
	{
		OFFSET 0.000000 13.784798 0.064400
		CHANNELS 3 Xrotation Yrotation Zrotation
		JOINT Spine1
		{
			OFFSET 0.000000 12.037903 0.404700
			CHANNELS 3 Xrotation Yrotation Zrotation
			JOINT Spine2
			{
				OFFSET 0.000000 17.795601 0.420200
				CHANNELS 3 Xrotation Yrotation Zrotation
				JOINT Neck
				{
					OFFSET 0.000000 39.131302 11.954600
					CHANNELS 3 Xrotation Yrotation Zrotation
					JOINT Head
					{
						OFFSET 0.000000 14.456192 15.627699
						CHANNELS 3 Xrotation Yrotation Zrotation
						JOINT HeadTop_End
						{
							OFFSET 0.000000 15.703506 7.603401
							CHANNELS 3 Xrotation Yrotation Zrotation
							End Site
							{
								OFFSET 0.000000 17.447403 0.000000
							}
						}
					}
				}
				JOINT LeftShoulder
				{
					OFFSET 17.399500 24.608795 1.168800
					CHANNELS 3 Xrotation Yrotation Zrotation
					JOINT LeftArm
					{
						OFFSET 18.980635 5.765305 1.818600
						CHANNELS 3 Xrotation Yrotation Zrotation
						JOINT LeftForeArm
						{
							OFFSET 49.290169 0.000000 0.000000
							CHANNELS 3 Xrotation Yrotation Zrotation
							JOINT LeftHand
							{
								OFFSET 31.562012 0.000000 0.000000
								CHANNELS 3 Xrotation Yrotation Zrotation
								JOINT LeftHandThumb1
								{
									OFFSET 6.133995 -4.388519 7.076070
									CHANNELS 3 Xrotation Yrotation Zrotation
									JOINT LeftHandThumb2
									{
										OFFSET 6.037666 -3.485840 3.485847
										CHANNELS 3 Xrotation Yrotation Zrotation
										JOINT LeftHandThumb3
										{
											OFFSET 6.496506 -3.750763 3.750761
											CHANNELS 3 Xrotation Yrotation Zrotation
											JOINT LeftHandThumb4
											{
												OFFSET 5.616882 -3.242905 3.242910
												CHANNELS 3 Xrotation Yrotation Zrotation
												End Site
												{
													OFFSET -1.254608 7.132141 0.375429
												}
											}
										}
									}
								}
								JOINT LeftHandPinky1
								{
									OFFSET 18.920792 -0.453171 -11.426712
									CHANNELS 3 Xrotation Yrotation Zrotation
									JOINT LeftHandPinky2
									{
										OFFSET 4.919586 0.000000 0.000000
										CHANNELS 3 Xrotation Yrotation Zrotation
										JOINT LeftHandPinky3
										{
											OFFSET 5.233047 0.000000 0.000000
											CHANNELS 3 Xrotation Yrotation Zrotation
											JOINT LeftHandPinky4
											{
												OFFSET 5.571716 0.000000 0.000000
												CHANNELS 3 Xrotation Yrotation Zrotation
												End Site
												{
													OFFSET -3.459808 4.342407 -0.466164
												}
											}
										}
									}
								}
								JOINT LeftHandRing1
								{
									OFFSET 22.726120 -0.094986 -6.500475
									CHANNELS 3 Xrotation Yrotation Zrotation
									JOINT LeftHandRing2
									{
										OFFSET 6.408615 0.000000 0.000000
										CHANNELS 3 Xrotation Yrotation Zrotation
										JOINT LeftHandRing3
										{
											OFFSET 6.150223 0.000000 0.000000
											CHANNELS 3 Xrotation Yrotation Zrotation
											JOINT LeftHandRing4
											{
												OFFSET 6.145386 0.000000 0.000000
												CHANNELS 3 Xrotation Yrotation Zrotation
												End Site
												{
													OFFSET -3.671402 4.923981 -0.202372
												}
											}
										}
									}
								}
								JOINT LeftHandMiddle1
								{
									OFFSET 23.373947 0.000000 0.000001
									CHANNELS 3 Xrotation Yrotation Zrotation
									JOINT LeftHandMiddle2
									{
										OFFSET 6.996567 0.000000 0.000000
										CHANNELS 3 Xrotation Yrotation Zrotation
										JOINT LeftHandMiddle3
										{
											OFFSET 7.015945 0.000000 0.000000
											CHANNELS 3 Xrotation Yrotation Zrotation
											JOINT LeftHandMiddle4
											{
												OFFSET 7.721573 0.000000 0.000000
												CHANNELS 3 Xrotation Yrotation Zrotation
												End Site
												{
													OFFSET -4.651108 6.158463 0.251582
												}
											}
										}
									}
								}
								JOINT LeftHandIndex1
								{
									OFFSET 21.310577 -0.490082 6.209344
									CHANNELS 3 Xrotation Yrotation Zrotation
									JOINT LeftHandIndex2
									{
										OFFSET 7.536453 0.000000 0.000000
										CHANNELS 3 Xrotation Yrotation Zrotation
										JOINT LeftHandIndex3
										{
											OFFSET 7.512344 0.000000 0.000000
											CHANNELS 3 Xrotation Yrotation Zrotation
											JOINT LeftHandIndex4
											{
												OFFSET 10.212402 0.000000 0.000001
												CHANNELS 3 Xrotation Yrotation Zrotation
												End Site
												{
													OFFSET -5.180801 8.690506 1.388433
												}
											}
										}
									}
								}
							}
						}
					}
				}
				JOINT RightShoulder
				{
					OFFSET -17.399500 24.608795 1.168800
					CHANNELS 3 Xrotation Yrotation Zrotation
					JOINT RightArm
					{
						OFFSET -18.980635 5.765305 1.818600
						CHANNELS 3 Xrotation Yrotation Zrotation
						JOINT RightForeArm
						{
							OFFSET -49.290169 0.000000 0.000000
							CHANNELS 3 Xrotation Yrotation Zrotation
							JOINT RightHand
							{
								OFFSET -31.562012 0.000000 0.000000
								CHANNELS 3 Xrotation Yrotation Zrotation
								JOINT RightHandThumb1
								{
									OFFSET -6.133995 -4.388519 7.076070
									CHANNELS 3 Xrotation Yrotation Zrotation
									JOINT RightHandThumb2
									{
										OFFSET -6.037666 -3.485840 3.485847
										CHANNELS 3 Xrotation Yrotation Zrotation
										JOINT RightHandThumb3
										{
											OFFSET -6.496506 -3.750763 3.750761
											CHANNELS 3 Xrotation Yrotation Zrotation
											JOINT RightHandThumb4
											{
												OFFSET -5.616882 -3.242905 3.242910
												CHANNELS 3 Xrotation Yrotation Zrotation
												End Site
												{
													OFFSET 1.254608 7.132141 0.375429
												}
											}
										}
									}
								}
								JOINT RightHandIndex1
								{
									OFFSET -21.310577 -0.490082 6.209344
									CHANNELS 3 Xrotation Yrotation Zrotation
									JOINT RightHandIndex2
									{
										OFFSET -7.536453 0.000000 0.000000
										CHANNELS 3 Xrotation Yrotation Zrotation
										JOINT RightHandIndex3
										{
											OFFSET -7.512344 0.000000 0.000000
											CHANNELS 3 Xrotation Yrotation Zrotation
											JOINT RightHandIndex4
											{
												OFFSET -10.212402 0.000000 0.000001
												CHANNELS 3 Xrotation Yrotation Zrotation
												End Site
												{
													OFFSET 5.180801 8.690506 1.388433
												}
											}
										}
									}
								}
								JOINT RightHandMiddle1
								{
									OFFSET -23.373947 0.000000 0.000001
									CHANNELS 3 Xrotation Yrotation Zrotation
									JOINT RightHandMiddle2
									{
										OFFSET -6.996567 0.000000 0.000000
										CHANNELS 3 Xrotation Yrotation Zrotation
										JOINT RightHandMiddle3
										{
											OFFSET -7.015945 0.000000 0.000000
											CHANNELS 3 Xrotation Yrotation Zrotation
											JOINT RightHandMiddle4
											{
												OFFSET -7.721573 0.000000 0.000000
												CHANNELS 3 Xrotation Yrotation Zrotation
												End Site
												{
													OFFSET 4.651108 6.158463 0.251582
												}
											}
										}
									}
								}
								JOINT RightHandRing1
								{
									OFFSET -22.726120 -0.094986 -6.500475
									CHANNELS 3 Xrotation Yrotation Zrotation
									JOINT RightHandRing2
									{
										OFFSET -6.408615 0.000000 0.000000
										CHANNELS 3 Xrotation Yrotation Zrotation
										JOINT RightHandRing3
										{
											OFFSET -6.150223 0.000000 0.000000
											CHANNELS 3 Xrotation Yrotation Zrotation
											JOINT RightHandRing4
											{
												OFFSET -6.145386 0.000000 0.000000
												CHANNELS 3 Xrotation Yrotation Zrotation
												End Site
												{
													OFFSET 3.671402 4.923981 -0.202372
												}
											}
										}
									}
								}
								JOINT RightHandPinky1
								{
									OFFSET -18.920792 -0.453171 -11.426712
									CHANNELS 3 Xrotation Yrotation Zrotation
									JOINT RightHandPinky2
									{
										OFFSET -4.919586 0.000000 0.000000
										CHANNELS 3 Xrotation Yrotation Zrotation
										JOINT RightHandPinky3
										{
											OFFSET -5.233047 0.000000 0.000000
											CHANNELS 3 Xrotation Yrotation Zrotation
											JOINT RightHandPinky4
											{
												OFFSET -5.571716 0.000000 0.000000
												CHANNELS 3 Xrotation Yrotation Zrotation
												End Site
												{
													OFFSET 3.459808 4.342407 -0.466164
												}
											}
										}
									}
								}
							}
						}
					}
				}
			}
		}
	}
	JOINT LeftUpLeg
	{
		OFFSET 19.899099 -7.885101 -3.429500
		CHANNELS 3 Xrotation Yrotation Zrotation
		JOINT LeftLeg
		{
			OFFSET 1.745560 -36.997807 10.304700
			CHANNELS 3 Xrotation Yrotation Zrotation
			JOINT LeftFoot
			{
				OFFSET -1.745558 -29.803308 -13.615400
				CHANNELS 3 Xrotation Yrotation Zrotation
				JOINT LeftToeBase
				{
					OFFSET 1.181900 -18.539904 15.226099
					CHANNELS 3 Xrotation Yrotation Zrotation
					JOINT LeftToe_End
					{
						OFFSET -0.863701 1.402801 16.534700
						CHANNELS 3 Xrotation Yrotation Zrotation
						End Site
						{
							OFFSET 0.000000 16.616566 0.000000
						}
					}
				}
			}
		}
	}
	JOINT RightUpLeg
	{
		OFFSET -19.899099 -7.885101 -3.429500
		CHANNELS 3 Xrotation Yrotation Zrotation
		JOINT RightLeg
		{
			OFFSET -1.745560 -36.997807 10.304700
			CHANNELS 3 Xrotation Yrotation Zrotation
			JOINT RightFoot
			{
				OFFSET 1.745558 -29.803308 -13.615400
				CHANNELS 3 Xrotation Yrotation Zrotation
				JOINT RightToeBase
				{
					OFFSET -1.181900 -18.539904 15.226099
					CHANNELS 3 Xrotation Yrotation Zrotation
					JOINT RightToe_End
					{
						OFFSET 0.863701 1.402801 16.534700
						CHANNELS 3 Xrotation Yrotation Zrotation
						End Site
						{
							OFFSET 0.000000 16.616566 0.000000
						}
					}
				}
			}
		}
	}
}
MOTION
Frames: 4
Frame Time: 0.033333
-107.683990 51.400295 -39.012836 -241.324490 -155.468534 -106.067654 4.256007 -36.488564 15.249027 -1.839075 -7.167068 5.444418 -2.304505 -7.179975 5.310880 1.204987 -2.592209 0.143029 7.589002 20.477488 10.826163 0.000001 -0.000003 -0.000002 -1.681314 -41.804811 -3.845869 -69.877732 -55.689114 -46.803721 0.000033 -57.939388 0.000037 51.712933 -18.968294 86.344137 -4.196879 -4.458292 19.387149 -3.682711 -0.440650 10.460720 -15.164400 -19.944726 -2.952249 0.000000 -0.000000 -0.000002 -7.022801 24.299173 10.934963 -0.000006 0.000003 -0.000008 0.198070 -1.511923 14.925346 -0.000001 -0.000003 -0.000003 -1.224419 11.843711 8.007652 0.029691 0.589725 -5.764637 0.159112 -1.357477 13.370332 -0.000000 -0.000001 0.000002 0.067117 2.160469 2.517708 -0.000002 0.000003 -0.000012 0.198053 -1.511905 14.925355 0.000001 0.000000 0.000008 14.270694 -10.413386 5.004557 -0.000006 0.000009 -0.000013 0.185248 -1.463051 14.432173 -0.000001 0.000003 0.000001 -1.582766 14.963379 14.391514 -76.122984 -74.278819 18.734910 -0.000035 140.345115 0.000061 4.061414 -6.340188 -90.833347 -20.253613 24.638675 -6.957128 3.516235 2.364193 -3.723126 -9.371538 7.929423 -9.538420 0.000001 -0.000001 0.000002 4.308409 22.687131 -8.840782 -0.000001 -0.000002 0.000001 0.051345 0.690409 -8.506665 0.000000 0.000000 -0.000001 0.313720 -0.367571 -9.955852 0.000003 -0.000007 0.000001 0.030207 0.530117 -6.521586 0.000002 0.000001 -0.000004 -2.473075 -12.606385 -13.637233 0.013677 -0.356949 4.386169 0.043843 0.638230 -7.859688 -0.000001 0.000003 -0.000003 -12.474455 -23.546444 -15.916041 0.000006 0.000007 -0.000001 0.158031 1.204119 -14.952679 0.000002 0.000003 -0.000001 47.744170 13.775588 -18.933488 75.133556 -2.439244 -3.777785 1.267576 -1.308028 -7.095147 -32.971960 -0.000007 -0.000009 -0.000000 -0.000000 -0.000000 -92.705884 -64.600004 -11.664898 93.317787 -36.649159 -14.098092 184.949720 -166.783097 175.243898 -2.350268 -0.000004 -0.000010 0.000001 0.000000 0.000000 
-107.644661 51.479000 -39.078350 -241.396261 -155.503012 -106.067613 4.017978 -36.470994 15.226100 -1.875305 -7.152043 5.469195 -2.342678 -7.163447 5.331962 1.158496 -2.622474 -0.110883 7.642468 20.726463 10.463297 0.000001 0.000000 0.000000 -1.763213 -42.157956 -3.904987 -69.049668 -55.518650 -45.783076 -0.000023 -58.007676 -0.000055 51.338314 -18.918608 86.563113 -4.199212 -4.458038 19.385754 -3.682717 -0.440628 10.460727 -15.162723 -19.943753 -2.949842 -0.000002 -0.000000 -0.000002 -7.022798 24.299166 10.934961 0.000002 0.000005 0.000001 0.197867 -1.511185 14.918033 0.000000 -0.000003 -0.000003 -1.224434 11.843852 8.007672 0.029696 0.589729 -5.764638 0.159116 -1.357490 13.370328 -0.000001 -0.000001 0.000003 0.067130 2.160068 2.517664 0.000001 0.000004 -0.000000 0.198064 -1.511907 14.925357 -0.000000 0.000001 0.000006 14.270690 -10.413382 5.004567 -0.000006 0.000004 -0.000004 0.185316 -1.463271 14.434391 -0.000000 0.000001 0.000001 -1.656073 14.429335 14.070911 -72.989744 -74.173361 21.838355 -0.000000 140.497497 0.000009 4.643456 -6.501499 -90.875899 -20.323452 24.755303 -6.871864 3.518445 2.365096 -3.723518 -9.366550 7.827895 -9.667895 0.000004 0.000001 -0.000000 4.325891 22.795435 -8.837886 -0.000003 -0.000002 0.000001 0.051344 0.690397 -8.506382 -0.000000 -0.000003 0.000001 0.313778 -0.367107 -9.954562 0.000002 0.000003 0.000004 0.030199 0.530074 -6.521284 -0.000000 0.000001 -0.000001 -2.472718 -12.606396 -13.635479 0.013677 -0.356940 4.386176 0.043840 0.638197 -7.859185 -0.000001 -0.000004 0.000002 -12.306657 -23.589867 -15.847361 -0.000001 -0.000006 0.000006 0.158028 1.204132 -14.952688 -0.000001 0.000001 -0.000001 47.792657 13.771947 -19.021573 75.073662 -2.361576 -3.763383 1.289253 -1.302282 -7.000170 -32.942272 -0.000028 0.000001 0.000001 0.000001 -0.000000 -92.552191 -64.479725 -11.313748 93.351399 -36.655163 -14.121107 185.128302 -166.939263 175.309291 -3.057918 0.000002 0.000017 -0.000001 -0.000002 -0.000001 
-107.606712 51.545479 -39.140385 -241.474890 -155.528448 -106.066322 3.812813 -36.455841 15.190745 -1.906142 -7.138121 5.488105 -2.374894 -7.148140 5.347995 1.117238 -2.646946 -0.335360 7.697490 20.985830 10.139201 -0.000001 -0.000003 -0.000002 -1.841812 -42.470570 -3.968576 -68.357271 -55.388692 -44.924405 0.000080 -58.025770 0.000055 51.018965 -18.899197 86.770300 -4.201493 -4.457696 19.384410 -3.682718 -0.440632 10.460718 -15.160961 -19.942870 -2.947338 0.000001 0.000001 -0.000002 -7.022792 24.299117 10.934956 -0.000003 0.000009 -0.000006 0.197904 -1.511300 14.919112 -0.000000 -0.000001 -0.000006 -1.224452 11.843941 8.007688 0.029689 0.589735 -5.764646 0.159120 -1.357479 13.370329 -0.000001 -0.000000 0.000002 0.067153 2.159654 2.517621 -0.000003 0.000007 -0.000004 0.198059 -1.511910 14.925355 -0.000001 -0.000000 0.000008 14.270684 -10.413353 5.004566 -0.000000 0.000000 -0.000006 0.185457 -1.463839 14.440060 -0.000000 0.000002 -0.000003 -1.728974 13.870931 13.752285 -69.703959 -74.055916 25.076964 -0.000014 140.616492 0.000044 5.193589 -6.612248 -90.963974 -20.392435 24.869958 -6.787742 3.520746 2.366040 -3.723904 -9.360775 7.722861 -9.798013 0.000001 -0.000001 0.000001 4.342657 22.902014 -8.834749 -0.000003 -0.000011 -0.000005 0.051334 0.690344 -8.506066 -0.000001 -0.000003 -0.000001 0.313824 -0.366710 -9.953250 0.000005 0.000005 0.000000 0.030194 0.530050 -6.521004 0.000000 0.000002 -0.000004 -2.472354 -12.606391 -13.633726 0.013673 -0.356948 4.386184 0.043833 0.638148 -7.858707 0.000002 0.000001 -0.000003 -12.138914 -23.633064 -15.778615 0.000005 0.000007 -0.000001 0.158034 1.204125 -14.952683 0.000002 -0.000001 -0.000001 47.837149 13.764231 -19.098727 75.032312 -2.291718 -3.750732 1.306085 -1.295690 -6.908298 -32.943249 0.000014 0.000003 -0.000000 -0.000001 -0.000001 -92.408129 -64.315377 -11.005452 93.416429 -36.673075 -14.098118 185.286080 -167.087491 175.388698 -3.732677 0.000008 0.000014 -0.000003 0.000003 0.000002 
-107.567276 51.604057 -39.205231 -241.559803 -155.545838 -106.063754 3.641684 -36.443738 15.143829 -1.931688 -7.125507 5.500386 -2.401232 -7.134344 5.358475 1.080332 -2.671075 -0.510351 7.746021 21.255248 9.898467 -0.000000 0.000003 -0.000001 -1.916959 -42.743614 -4.036277 -67.797947 -55.305087 -44.224730 -0.000003 -57.992240 -0.000019 50.755805 -18.908675 86.962583 -4.203680 -4.457326 19.383127 -3.682710 -0.440666 10.460722 -15.159166 -19.941955 -2.944816 -0.000000 -0.000000 -0.000001 -7.022781 24.299069 10.934939 -0.000003 0.000000 -0.000005 0.198065 -1.511900 14.925254 0.000002 0.000000 0.000001 -1.224448 11.843943 8.007683 0.029691 0.589740 -5.764648 0.159118 -1.357494 13.370329 -0.000003 -0.000001 0.000007 0.067170 2.159201 2.517579 0.000001 -0.000003 -0.000004 0.198054 -1.511904 14.925357 -0.000001 0.000003 0.000009 14.270690 -10.413370 5.004565 0.000004 -0.000005 -0.000006 0.185248 -1.463068 14.432285 -0.000000 -0.000002 -0.000001 -1.800470 13.286162 13.435664 -66.291835 -73.920713 28.444953 -0.000024 140.697963 0.000045 5.717042 -6.669751 -91.079500 -20.460414 24.982435 -6.704962 3.523041 2.366997 -3.724261 -9.354267 7.614483 -9.928687 0.000001 0.000003 -0.000002 4.358319 23.006744 -8.831283 0.000002 0.000007 0.000001 0.051328 0.690320 -8.505727 -0.000003 -0.000003 -0.000001 0.313863 -0.366351 -9.951911 0.000002 0.000005 0.000000 0.030196 0.530026 -6.520758 -0.000000 0.000001 -0.000004 -2.471996 -12.606401 -13.631986 0.013673 -0.356961 4.386161 0.043829 0.638129 -7.858128 -0.000000 -0.000001 -0.000003 -11.971267 -23.675994 -15.709777 0.000003 0.000007 -0.000003 0.158034 1.204121 -14.952683 0.000001 -0.000001 -0.000001 47.881026 13.755941 -19.176011 75.005231 -2.219201 -3.736328 1.319224 -1.289970 -6.816302 -32.953204 -0.000002 -0.000009 -0.000000 -0.000000 -0.000000 -92.268745 -64.178459 -10.719987 93.470053 -36.684546 -14.078053 185.424541 -167.232592 175.440007 -4.358837 0.000009 -0.000009 -0.000003 -0.000001 0.000002 
